G04 DipTrace 2.4.0.2*
%INAmpControllerPCB.GTS*%
%MOIN*%
%ADD21C,0.0728*%
%ADD40C,0.1378*%
%ADD50R,0.0866X0.0866*%
%ADD51R,0.0709X0.0709*%
%ADD52R,0.0276X0.0748*%
%ADD54R,0.0748X0.0276*%
%ADD56C,0.061*%
%ADD58C,0.0827*%
%ADD59C,0.0669*%
%ADD60R,0.0827X0.0827*%
%ADD61R,0.0669X0.0669*%
%ADD62R,0.0579X0.0579*%
%ADD64C,0.0579*%
%ADD66C,0.0866*%
%ADD71C,0.0709*%
%ADD74R,0.0472X0.0512*%
%ADD76C,0.0807*%
%ADD77R,0.0807X0.0807*%
%ADD79C,0.0717*%
%ADD81R,0.0717X0.0717*%
%FSLAX44Y44*%
G04*
G70*
G90*
G75*
G01*
%LNTopMask*%
%LPD*%
D81*
X38437Y32807D3*
D79*
X39437D3*
X40437D3*
D81*
X27312Y28557D3*
D79*
X28312D3*
X29312D3*
D81*
X40312Y18307D3*
D79*
Y17307D3*
D81*
X34937Y17807D3*
D79*
Y18807D3*
Y19807D3*
D77*
X38281Y38057D3*
D76*
X36312D3*
D77*
X28687Y36057D3*
D76*
X30656D3*
D21*
X22578Y7747D3*
X24546D3*
X26703Y7997D3*
X28671D3*
D74*
X22937Y23432D3*
Y24101D3*
X29187Y23682D3*
Y24351D3*
X22937Y24807D3*
Y25476D3*
D71*
X11437Y17182D3*
D51*
X7437D3*
D61*
X13062Y22432D3*
D59*
Y26408D3*
D61*
X18187Y39307D3*
D59*
X14211D3*
D61*
X18562Y32932D3*
D59*
X14586D3*
D81*
X38812Y28893D3*
D79*
X39812D3*
D81*
X38812Y23268D3*
D79*
X39812D3*
D81*
X5812Y10307D3*
D79*
X6812D3*
X7812D3*
D81*
X10062Y10432D3*
D79*
X11062D3*
X12062D3*
D81*
X11062Y19057D3*
D79*
X10062D3*
D81*
X30937Y32557D3*
D79*
X31937D3*
X32937D3*
D81*
X12812Y41307D3*
D79*
Y40307D3*
D81*
X12937Y34682D3*
D79*
Y33682D3*
D81*
X5937Y23182D3*
D79*
Y24182D3*
Y25182D3*
D66*
X34937Y21557D3*
Y32581D3*
D64*
X12687Y37932D3*
D62*
X11687D3*
D64*
X12812Y31557D3*
D62*
X11812D3*
D81*
X23062Y6057D3*
D79*
X24062D3*
D81*
X27312D3*
D79*
X28312D3*
D40*
X6031Y41464D3*
X41464Y6031D3*
X6031D3*
X41464Y41464D3*
D64*
X41812Y36557D3*
D62*
X40812D3*
D81*
X28562Y39682D3*
D79*
Y40682D3*
Y41682D3*
D81*
X30437Y41182D3*
D79*
X31437D3*
D60*
X41812Y29432D3*
D58*
Y28432D3*
Y27432D3*
D60*
Y24018D3*
D58*
Y23018D3*
Y22018D3*
D56*
X15062Y37557D3*
X17031D3*
X39937Y38807D3*
X41906D3*
X19062Y41557D3*
X17094D3*
X15562Y31182D3*
X17531D3*
X19312Y34807D3*
X17344D3*
X38812Y30557D3*
X40781D3*
X39062Y25557D3*
X41031D3*
X8921Y34823D3*
Y36791D3*
X9046Y37948D3*
Y39916D3*
X8796Y28198D3*
Y30166D3*
X8921Y31573D3*
Y33541D3*
X15062Y25307D3*
Y23339D3*
X35812Y10307D3*
Y8339D3*
X20156Y6807D3*
X18187D3*
X14094D3*
X16062D3*
X22687Y9807D3*
X24656D3*
X28812Y10307D3*
X26844D3*
X12562Y14807D3*
Y16776D3*
X11562Y14182D3*
Y12214D3*
X6187Y17182D3*
Y15214D3*
X6203Y14041D3*
Y12073D3*
D64*
X6937Y38182D3*
D62*
X5937D3*
D64*
X6937Y35057D3*
D62*
X5937D3*
D64*
X6937Y31932D3*
D62*
X5937D3*
D64*
X6937Y28807D3*
D62*
X5937D3*
D81*
X14687Y4932D3*
D79*
X15687D3*
D81*
X18687D3*
D79*
X19687D3*
D54*
X24812Y25682D3*
Y25367D3*
Y25052D3*
Y24737D3*
Y24422D3*
Y24107D3*
Y23792D3*
Y23477D3*
D52*
X25363Y22926D3*
X25678D3*
X25993D3*
X26308D3*
X26623D3*
X26938D3*
X27253D3*
X27568D3*
D54*
X28119Y23477D3*
Y23792D3*
Y24107D3*
Y24422D3*
Y24737D3*
Y25052D3*
Y25367D3*
Y25682D3*
D52*
X27568Y26233D3*
X27253D3*
X26938D3*
X26623D3*
X26308D3*
X25993D3*
X25678D3*
X25363D3*
D50*
X33562Y9557D3*
D58*
X32562D3*
X31562D3*
Y8557D3*
X32562D3*
X33562D3*
D60*
X35812Y42057D3*
D58*
X36812D3*
X37812D3*
D61*
X7312Y15307D3*
D59*
Y14307D3*
Y13307D3*
Y12307D3*
X10312D3*
Y13307D3*
Y14307D3*
Y15307D3*
D61*
X19937Y39932D3*
D59*
Y38932D3*
Y37932D3*
X22937D3*
Y38932D3*
Y39932D3*
D61*
X20312Y34057D3*
D59*
Y33057D3*
Y32057D3*
X23312D3*
Y33057D3*
Y34057D3*
D61*
X11312Y23182D3*
D59*
Y24182D3*
Y25182D3*
X8312D3*
Y24182D3*
Y23182D3*
M02*
