M48
INCH
T01C0.0157
T02C0.028
T03C0.0315
T04C0.0354
T05C0.0394
T06C0.0402
T07C0.0433
T08C0.0472
T09C0.1378
%
T01
X+023437Y+023057
X+024062Y+023057
X+022437Y+024182
X+021562Y+024182
X+022437Y+025432
X+023187Y+026932
X+024562Y+027682
X+026187Y+026932
X+027687Y+027307
X+028062Y+026182
X+029812Y+026182
X+029937Y+023682
X+028562Y+022432
X+028437Y+020682
X+029687Y+019307
X+030937Y+018307
X+032062Y+017307
X+033187Y+016182
X+033062Y+014182
X+030937Y+016182
X+026312Y+025307
X+019937Y+010932
X+018812Y+009557
T02
X+012687Y+037932
X+011687Y+037932
X+006937Y+038182
X+005937Y+038182
X+005937Y+035057
X+006937Y+035057
X+006937Y+031932
X+005937Y+031932
X+005937Y+028807
X+006937Y+028807
X+011812Y+031557
X+012812Y+031557
X+040812Y+036557
X+041812Y+036557
T03
X+015062Y+037557
X+017031Y+037557
X+017344Y+034807
X+019312Y+034807
X+017531Y+031182
X+015562Y+031182
X+015062Y+025307
X+015062Y+023339
X+012562Y+016776
X+012562Y+014807
X+011562Y+014182
X+011562Y+012214
X+006203Y+012073
X+006203Y+014041
X+006187Y+015214
X+006187Y+017182
X+008796Y+028198
X+008796Y+030166
X+008921Y+031573
X+008921Y+033541
X+008921Y+034823
X+008921Y+036791
X+009046Y+037948
X+009046Y+039916
X+017094Y+041557
X+019062Y+041557
X+039937Y+038807
X+041906Y+038807
X+040781Y+030557
X+038812Y+030557
X+039062Y+025557
X+041031Y+025557
X+035812Y+010307
X+035812Y+008339
X+028812Y+010307
X+026844Y+010307
X+024656Y+009807
X+022687Y+009807
X+020156Y+006807
X+018187Y+006807
X+016062Y+006807
X+014094Y+006807
T04
X+011437Y+017182
X+010312Y+015307
X+010312Y+014307
X+010312Y+013307
X+010312Y+012307
X+007312Y+012307
X+007312Y+013307
X+007312Y+014307
X+007312Y+015307
X+007437Y+017182
X+008312Y+023182
X+008312Y+024182
X+008312Y+025182
X+011312Y+025182
X+011312Y+024182
X+011312Y+023182
X+013062Y+022432
X+013062Y+026408
X+014586Y+032932
X+018562Y+032932
X+020312Y+033057
X+020312Y+034057
X+020312Y+032057
X+023312Y+032057
X+023312Y+033057
X+023312Y+034057
X+022937Y+037932
X+022937Y+038932
X+022937Y+039932
X+019937Y+039932
X+019937Y+038932
X+019937Y+037932
X+018187Y+039307
X+014211Y+039307
T05
X+022578Y+007747
X+024546Y+007747
X+026703Y+007997
X+028671Y+007997
X+031562Y+008557
X+032562Y+008557
X+033562Y+008557
X+033562Y+009557
X+032562Y+009557
X+031562Y+009557
T06
X+038437Y+032807
X+039437Y+032807
X+040437Y+032807
X+039812Y+028893
X+038812Y+028893
X+038812Y+023268
X+039812Y+023268
X+040312Y+018307
X+040312Y+017307
X+034937Y+017807
X+034937Y+018807
X+034937Y+019807
X+029312Y+028557
X+028312Y+028557
X+027312Y+028557
X+030937Y+032557
X+031937Y+032557
X+032937Y+032557
X+028562Y+039682
X+028562Y+040682
X+028562Y+041682
X+030437Y+041182
X+031437Y+041182
X+012812Y+041307
X+012812Y+040307
X+012937Y+034682
X+012937Y+033682
X+005937Y+025182
X+005937Y+024182
X+005937Y+023182
X+010062Y+019057
X+011062Y+019057
X+011062Y+010432
X+010062Y+010432
X+012062Y+010432
X+007812Y+010307
X+006812Y+010307
X+005812Y+010307
X+014687Y+004932
X+015687Y+004932
X+018687Y+004932
X+019687Y+004932
X+023062Y+006057
X+024062Y+006057
X+027312Y+006057
X+028312Y+006057
T07
X+038281Y+038057
X+036312Y+038057
X+035812Y+042057
X+036812Y+042057
X+037812Y+042057
X+030656Y+036057
X+028687Y+036057
X+041812Y+029432
X+041812Y+028432
X+041812Y+027432
X+041812Y+024018
X+041812Y+023018
X+041812Y+022018
T08
X+034937Y+021557
X+034937Y+032581
T09
X+006031Y+041464
X+006031Y+006031
X+041464Y+006031
X+041464Y+041464
T00
M30
